<?xml version="1.0" encoding="UTF-8" standalone="no"?>
<svg
   xmlns:dc="http://purl.org/dc/elements/1.1/"
   xmlns:cc="http://creativecommons.org/ns#"
   xmlns:rdf="http://www.w3.org/1999/02/22-rdf-syntax-ns#"
   xmlns:svg="http://www.w3.org/2000/svg"
   xmlns="http://www.w3.org/2000/svg"
   xmlns:sodipodi="http://sodipodi.sourceforge.net/DTD/sodipodi-0.dtd"
   xmlns:inkscape="http://www.inkscape.org/namespaces/inkscape"
   baseProfile="tiny"
   width="100%"
   height="100%"
   viewBox="0 0 88 87.999"
   id="svg2"
   sodipodi:version="0.32"
   inkscape:version="0.46"
   sodipodi:docname="qgn_menu_FreeMap2.svg"
   inkscape:output_extension="org.inkscape.output.svg.inkscape">
  <metadata
     id="metadata83">
    <rdf:RDF>
      <cc:Work
         rdf:about="">
        <dc:format>image/svg+xml</dc:format>
        <dc:type
           rdf:resource="http://purl.org/dc/dcmitype/StillImage" />
      </cc:Work>
    </rdf:RDF>
  </metadata>
  <defs
     id="defs81">
    <inkscape:perspective
       sodipodi:type="inkscape:persp3d"
       inkscape:vp_x="0 : 0.5 : 1"
       inkscape:vp_y="0 : 1000 : 0"
       inkscape:vp_z="1 : 0.5 : 1"
       inkscape:persp3d-origin="0.5 : 0.33333333 : 1"
       id="perspective85" />
  </defs>
  <sodipodi:namedview
     inkscape:window-height="777"
     inkscape:window-width="856"
     inkscape:pageshadow="2"
     inkscape:pageopacity="0.0"
     guidetolerance="10.0"
     gridtolerance="10.0"
     objecttolerance="10.0"
     borderopacity="1.0"
     bordercolor="#666666"
     pagecolor="#ffffff"
     id="base"
     showgrid="false"
     inkscape:zoom="3.7123528"
     inkscape:cx="6.7279093"
     inkscape:cy="43.062897"
     inkscape:window-x="44"
     inkscape:window-y="58"
     inkscape:current-layer="svg2" />
  <g
     id="g4">
    <g
       id="g6">
      <g
         id="g8">
        <g
           id="g10">
          <rect
             fill="none"
             width="88"
             height="87.999"
             id="rect12" />
        </g>
      </g>
      <g
         id="g14">
        <linearGradient
           id="XMLID_7_"
           gradientUnits="userSpaceOnUse"
           x1="12.3042"
           y1="18.3799"
           x2="63.4113"
           y2="79.287">
          <stop
             offset="0"
             style="stop-color:#B3DDFF"
             id="stop17" />
          <stop
             offset="0.8146"
             style="stop-color:#084296"
             id="stop19" />
          <stop
             offset="1"
             style="stop-color:#084296"
             id="stop21" />
        </linearGradient>
        <path
           fill="url(#XMLID_7_)"
           d="M32.135,7.415L14.363,17.432v23.167c0,0,8.926,15.351,10.468,18.001       c-2.386,1.704-15.44,11.03-15.44,11.03l21.613,12.652c0,0,12.907-9.85,14.71-11.226c1.979,1.109,16.231,9.101,16.231,9.101       l16.664-15.132c0,0-14.066-6.929-16.888-8.318c1.467-3.01,10.531-21.604,10.531-21.604l-22.298-9.59       c0,0-1.486,3.173-2.093,4.467c-2.046-0.88-6.573-2.826-6.573-2.826s-3.713,2.463-5.696,3.778       c-0.327-0.744-0.542-1.233-0.657-1.495c0.007-0.824,0.213-23.72,0.213-23.72L32.135,7.415z"
           id="path23" />
        <linearGradient
           id="XMLID_8_"
           gradientUnits="userSpaceOnUse"
           x1="40.8276"
           y1="52.1914"
           x2="16.1997"
           y2="21.1353">
          <stop
             offset="0"
             style="stop-color:#5AA7E0"
             id="stop26" />
          <stop
             offset="1"
             style="stop-color:#3366CC"
             id="stop28" />
        </linearGradient>
        <polygon
           fill="url(#XMLID_8_)"
           points="59.051,57.621 69.536,36.111 50.944,28.115 48.852,32.581 41.493,29.418 34.719,33.911        32.932,29.849 33.117,9.157 16.363,18.601 16.363,40.06 27.476,59.169 13.064,69.463 30.856,79.879 45.546,68.669        61.667,77.708 75.089,65.521 "
           id="polygon30" />
        <linearGradient
           id="XMLID_9_"
           gradientUnits="userSpaceOnUse"
           x1="60.585"
           y1="31.876"
           x2="53.8582"
           y2="45.1125">
          <stop
             offset="0"
             style="stop-color:#5AA7E0"
             id="stop33" />
          <stop
             offset="1"
             style="stop-color:#3366CC"
             id="stop35" />
        </linearGradient>
        <polygon
           fill="url(#XMLID_9_)"
           points="41.26,48.783 50.944,28.115 69.536,36.111 59.051,57.621 "
           id="polygon37" />
        <polygon
           fill="#0046B7"
           points="16.363,40.06 27.476,59.169 41.26,48.783 32.932,29.849 "
           id="polygon39" />
        <polygon
           fill="#3366CC"
           points="16.363,40.06 16.363,18.601 33.117,9.157 32.932,29.849 "
           id="polygon41" />
        <polygon
           fill="#CFECFF"
           points="26.696,39.23 41.493,29.418 59.523,37.168 45.546,47.954 "
           id="polygon43" />
        <path
           fill="#5AA7E0"
           d="M41.954,55.286"
           id="path45" />
        <polygon
           fill="#3366CC"
           points="26.696,39.23 27.476,59.169 45.546,68.669 45.546,47.954 "
           id="polygon47" />
        <polygon
           fill="#5AA7E0"
           points="13.064,69.463 27.476,59.169 45.546,68.669 30.856,79.879 "
           id="polygon49" />
        <linearGradient
           id="XMLID_10_"
           gradientUnits="userSpaceOnUse"
           x1="29.2085"
           y1="63.6836"
           x2="48.7102"
           y2="56.1976">
          <stop
             offset="0"
             style="stop-color:#5AA7E0"
             id="stop52" />
          <stop
             offset="0.0056"
             style="stop-color:#5AA7E0"
             id="stop54" />
          <stop
             offset="0.85"
             style="stop-color:#3366CC"
             id="stop56" />
          <stop
             offset="1"
             style="stop-color:#3366CC"
             id="stop58" />
        </linearGradient>
        <polygon
           fill="url(#XMLID_10_)"
           points="43.423,46.971 27.476,59.169 45.546,68.669 45.546,47.954 "
           id="polygon60" />
        <polygon
           fill="#0046B7"
           points="45.546,47.954 45.546,68.669 59.051,57.621 59.523,37.168 "
           id="polygon62" />
        <linearGradient
           id="XMLID_11_"
           gradientUnits="userSpaceOnUse"
           x1="45.3936"
           y1="59.5186"
           x2="59.0508"
           y2="59.5186">
          <stop
             offset="0"
             style="stop-color:#0046B7"
             id="stop65" />
          <stop
             offset="1"
             style="stop-color:#3366CC"
             id="stop67" />
        </linearGradient>
        <polygon
           fill="url(#XMLID_11_)"
           points="45.394,50.368 45.546,68.669 59.051,57.621 "
           id="polygon69" />
        <linearGradient
           id="XMLID_12_"
           gradientUnits="userSpaceOnUse"
           x1="60.8945"
           y1="68.6807"
           x2="57.2953"
           y2="58.792">
          <stop
             offset="0"
             style="stop-color:#5AA7E0"
             id="stop72" />
          <stop
             offset="0.4101"
             style="stop-color:#5AA7E0"
             id="stop74" />
          <stop
             offset="1"
             style="stop-color:#3366CC"
             id="stop76" />
        </linearGradient>
        <polygon
           fill="url(#XMLID_12_)"
           points="61.667,77.708 45.546,68.669 59.051,57.621 75.089,65.521 "
           id="polygon78" />
      </g>
    </g>
  </g>
  <path
     style="opacity:1;fill:#ffff00;fill-opacity:1;stroke:#1a4626;stroke-width:0.06599589000000000;stroke-linecap:round;stroke-linejoin:round;stroke-miterlimit:4;stroke-dasharray:none;stroke-opacity:1"
     d="M 36.029217,43.442619 L 26.945182,39.194914 L 34.075456,34.442311 C 37.997106,31.828378 41.357625,29.688724 41.543275,29.68752 C 42.045334,29.684269 58.985874,37.007342 58.985874,37.227628 C 58.985874,37.490553 45.85904,47.592731 45.447395,47.6466 C 45.263617,47.670647 41.02545,45.778857 36.029225,43.442619 L 36.029217,43.442619 z"
     id="path2518" />
  <path
     style="opacity:1;fill:#ff5555;fill-opacity:1;stroke:#1a4626;stroke-width:0.06599589000000000;stroke-linecap:round;stroke-linejoin:round;stroke-miterlimit:4;stroke-dasharray:none;stroke-opacity:1"
     d="M 16.489517,29.234503 L 16.559949,18.54321 L 24.775763,13.904238 L 32.991577,9.265261 L 33.058246,11.463697 C 33.094919,12.672839 33.03431,17.34153 32.923564,21.83857 L 32.722206,30.015002 L 24.680338,34.970407 C 20.257308,37.695873 16.589103,39.925804 16.528772,39.925804 C 16.468438,39.925804 16.450776,35.11472 16.489517,29.234506 L 16.489517,29.234503 z"
     id="path2520" />
  <flowRoot
     xml:space="preserve"
     id="flowRoot2429"
     style="font-size:10px;font-style:normal;font-variant:normal;font-weight:normal;font-stretch:normal;text-align:start;line-height:125%;writing-mode:lr-tb;text-anchor:start;fill:#000000;fill-opacity:1;stroke:none;stroke-width:1px;stroke-linecap:butt;stroke-linejoin:miter;stroke-opacity:1;font-family:Comic Sans MS;-inkscape-font-specification:Comic Sans MS"><flowRegion
       id="flowRegion2431"><rect
         id="rect2433"
         width="33.401997"
         height="22.89653"
         x="4.8486772"
         y="47.593357" /></flowRegion><flowPara
       id="flowPara2435" /></flowRoot>  <flowRoot
     xml:space="preserve"
     id="flowRoot2437"
     style="font-size:10px;font-style:normal;font-variant:normal;font-weight:normal;font-stretch:normal;text-align:start;line-height:125%;writing-mode:lr-tb;text-anchor:start;fill:#000000;fill-opacity:1;stroke:none;stroke-width:1px;stroke-linecap:butt;stroke-linejoin:miter;stroke-opacity:1;font-family:Comic Sans MS;-inkscape-font-specification:Comic Sans MS"
     transform="matrix(0.7726992,-0.6523853,0.6651351,0.7578875,-11.89038,37.88524)"
     inkscape:transform-center-y="2.9577513"
     inkscape:transform-center-x="-0.14985789"><flowRegion
       id="flowRegion2439"><rect
         id="rect2441"
         width="27.475838"
         height="22.088417"
         x="33.940739"
         y="30.622988" /></flowRegion><flowPara
       id="flowPara2443">1.2</flowPara></flowRoot></svg>
